HIERARCHY
ROOT Hips
{
    OFFSET 0.000000 0.000000 0.000000
    CHANNELS 6 Xposition Yposition Zposition Zrotation Xrotation Yrotation
        JOINT Chest
        {
            OFFSET -0.000000 29.765863 -0.000000
            CHANNELS 3 Zrotation Xrotation Yrotation
            JOINT Neck
            {
                OFFSET -0.000000 22.048780 0.000000
                CHANNELS 3 Zrotation Xrotation Yrotation
                JOINT Head
                {
                    OFFSET -0.000000 10.266670 0.000000
                    CHANNELS 3 Zrotation Xrotation Yrotation
                    End Site
                    {
                        OFFSET -0.000000 15.866677 0.000000
                    }
                }
            }
            JOINT LeftCollar
            {
                OFFSET -0.000000 22.048780 0.000000
                CHANNELS 3 Zrotation Xrotation Yrotation
                JOINT LeftShoulder
                {
                    OFFSET 18.666672 -0.000000 0.000000
                    CHANNELS 3 Zrotation Xrotation Yrotation
                    JOINT LeftElbow
                    {
                        OFFSET 23.656216 0.000000 0.000000
                        CHANNELS 3 Zrotation Xrotation Yrotation
                        JOINT LeftWrist
                        {
                            OFFSET 24.590921 0.000000 0.000000
                            CHANNELS 3 Zrotation Xrotation Yrotation
                            End Site
                            {
                                OFFSET 0.000000 -14.000008 0.000000
                            }
                        }
                    }
                }
            }
            JOINT RightCollar
            {
                OFFSET -0.000000 22.048780 0.000000
                CHANNELS 3 Zrotation Xrotation Yrotation
                JOINT RightShoulder
                {
                    OFFSET -18.666672 0.000000 0.000000
                    CHANNELS 3 Zrotation Xrotation Yrotation
                    JOINT RightElbow
                    {
                        OFFSET -23.656216 0.000000 0.000000
                        CHANNELS 3 Zrotation Xrotation Yrotation
                        JOINT RightWrist
                        {
                            OFFSET -24.590921 0.000000 0.000000
                            CHANNELS 3 Zrotation Xrotation Yrotation
                            End Site
                            {
                                OFFSET -0.000000 -14.000008 0.000000
                            }
                        }
                    }
                }
            }
        }
    JOINT LeftHip
    {
        OFFSET 11.200002 0.000000 0.000000
        CHANNELS 3 Zrotation Xrotation Yrotation
        JOINT LeftKnee
        {
            OFFSET -0.000000 -37.692356 0.000000
            CHANNELS 3 Zrotation Xrotation Yrotation
            JOINT LeftAnkle
            {
                OFFSET -0.000000 -39.524944 0.000000
                CHANNELS 3 Zrotation Xrotation Yrotation
                End Site
                {
                    OFFSET -0.000000 -4.666668 15.866677
                }
            }
        }
    }
    JOINT RightHip
    {
        OFFSET -11.200002 0.000000 0.000000
        CHANNELS 3 Zrotation Xrotation Yrotation
        JOINT RightKnee
        {
            OFFSET -0.000000 -37.692356 0.000000
            CHANNELS 3 Zrotation Xrotation Yrotation
            JOINT RightAnkle
            {
                OFFSET -0.000000 -39.524944 0.000000
                CHANNELS 3 Zrotation Xrotation Yrotation
                End Site
                {
                    OFFSET -0.000000 -4.666668 15.866677
                }
            }
        }
    }
}
MOTION
Frames:    10
Frame Time:    0.010000
-32.382061    83.744987    -4.660895    4.281881    0.242161    -35.110508    1.766416    -0.122752    -4.105416    4.854963    17.625237    4.255123    -11.806312    -25.209492    2.994905    -15.609830    0.050467    -0.223852    -61.701759    28.538897    -4.450671    4.193836    -0.627736    -17.546505    100.782463    -4.893154    23.745060    17.986938    -1.982238    -12.301629    50.446232    39.323730    11.885293    -0.677445    -0.090893    15.283599    -86.066795    -7.356256    -24.210758    1.382350    -23.961622    -5.133999    -0.508550    28.198309    -2.484140    5.890594    -12.563177    8.906004    3.584983    -5.199997    3.754486    -0.019387    12.715991    8.920194    -1.419313    -8.464912    -24.912474    
-32.350510    83.744034    -4.663901    4.309248    0.294438    -35.153080    1.717093    -0.314045    -4.189130    4.645860    18.538677    5.303135    -10.699530    -26.156420    3.703052    -15.622705    -0.083844    1.537483    -61.532650    28.313494    -4.457614    4.371300    -0.642515    -17.650532    100.735870    -4.727643    24.105742    18.133341    -1.815801    -10.177855    50.993378    39.628052    10.853148    -0.400947    -0.051121    15.178386    -86.301422    -7.340521    -24.156900    1.407903    -24.158527    -5.034568    -0.538815    28.444086    -2.497195    5.880465    -12.668978    8.891810    3.577736    -5.288275    3.739171    -0.035606    12.740582    8.941047    -1.338096    -8.481818    -24.863169    
-32.335247    83.724937    -4.645774    4.297157    0.283217    -35.179573    1.744112    -0.299922    -4.189552    4.659328    18.539192    5.338904    -10.458180    -26.213743    3.663424    -15.636888    -0.146798    1.488472    -61.596775    28.251028    -4.279312    4.264336    -0.654927    -17.622110    100.903145    -4.744576    23.998697    18.169678    -1.721820    -10.127209    50.986691    39.370964    10.842340    -0.496487    -0.041618    15.277615    -86.248154    -7.319018    -23.988647    1.437174    -24.159826    -5.073847    -0.640027    28.489985    -2.362832    5.924221    -12.687374    8.857318    3.573608    -5.259588    3.787519    -0.031052    12.725964    8.946521    -1.368806    -8.472910    -24.893373    
-32.322906    83.725517    -4.639343    4.298222    0.293307    -35.201885    1.763949    -0.315662    -4.217236    4.672311    18.534700    5.347654    -10.488196    -26.200947    3.664835    -15.642799    -0.181225    1.460415    -61.627968    28.267159    -4.196976    4.228554    -0.672925    -17.590097    100.955269    -4.747129    24.016752    18.187731    -1.668206    -10.148166    50.959316    39.325951    10.881850    -0.553077    -0.077612    15.328103    -86.309685    -7.246357    -23.952663    1.460306    -24.215670    -5.064340    -0.695791    28.579975    -2.300630    5.938003    -12.725931    8.831760    3.569810    -5.270854    3.802169    -0.033778    12.725704    8.956450    -1.360598    -8.473343    -24.893618    
-32.310066    83.727432    -4.631881    4.296793    0.303115    -35.225075    1.786651    -0.328161    -4.246587    4.688716    18.533699    5.363966    -10.533739    -26.187887    3.675522    -15.647966    -0.215631    1.444154    -61.654537    28.293524    -4.126287    4.244876    -0.631695    -17.594866    100.987198    -4.722373    24.116243    18.200586    -1.642087    -10.158187    50.951923    39.308460    10.886534    -0.609788    -0.057649    15.373649    -86.379768    -7.156324    -23.969141    1.487760    -24.273787    -5.054580    -0.759100    28.677633    -2.227179    5.954306    -12.767219    8.797740    3.566801    -5.279644    3.818514    -0.036682    12.724423    8.968740    -1.352015    -8.473467    -24.895933    
-32.296795    83.729729    -4.623553    4.292066    0.312413    -35.247715    1.812944    -0.335975    -4.276732    4.709994    18.529377    5.378983    -10.580921    -26.171717    3.684662    -15.652979    -0.215757    1.428457    -61.663620    28.305304    -4.093666    4.208755    -0.649599    -17.563896    101.067360    -4.728517    24.131311    18.212824    -1.615857    -10.173724    50.938297    39.297535    10.892645    -0.624963    -0.061825    15.404719    -86.502998    -7.049238    -23.952518    1.519255    -24.333452    -5.042316    -0.827167    28.782377    -2.147712    5.974210    -12.810889    8.756420    3.565623    -5.284997    3.835410    -0.040189    12.721841    8.983416    -1.342539    -8.473700    -24.900904    
-32.283199    83.731583    -4.614583    4.283618    0.321264    -35.268349    1.842773    -0.339218    -4.306923    4.735403    18.523155    5.393831    -10.630179    -26.151094    3.693906    -15.657663    -0.187889    1.417688    -61.653656    28.314968    -4.104606    4.180760    -0.676681    -17.545824    101.114868    -4.742936    24.132900    18.212465    -1.660736    -10.190928    50.960552    39.357056    10.859491    -0.732658    -0.120592    15.473653    -86.594223    -6.912279    -23.960546    1.554331    -24.394356    -5.025478    -0.897133    28.893604    -2.068640    5.998464    -12.856562    8.710189    3.567143    -5.286356    3.851986    -0.044567    12.717427    8.999735    -1.331569    -8.474580    -24.908699    
-32.269451    83.732399    -4.605151    4.271462    0.329742    -35.285748    1.875903    -0.338326    -4.336458    4.764476    18.514427    5.406944    -10.678574    -26.123796    3.702449    -15.660583    -0.187961    1.411703    -61.647079    28.359465    -4.115158    4.233506    -0.651883    -17.600149    101.108459    -4.715944    24.216740    18.225824    -1.634712    -10.208929    50.931156    39.347126    10.862710    -0.661657    -0.080421    15.459025    -86.748352    -6.810669    -23.942261    1.592270    -24.456036    -5.002919    -0.966691    29.010284    -1.996008    6.027309    -12.903866    8.662504    3.571771    -5.283301    3.867680    -0.049898    12.710554    9.017246    -1.318705    -8.476463    -24.919962    
-32.255745    83.731842    -4.595407    4.255789    0.337960    -35.299057    1.911938    -0.334132    -4.364658    4.796718    18.503036    5.416860    -10.724155    -26.087626    3.709925    -15.661379    -0.222255    1.410173    -61.650177    28.430462    -4.111414    4.293537    -0.641609    -17.669338    101.107773    -4.685347    24.280647    18.229904    -1.670263    -10.227431    50.928703    39.401608    10.854876    -0.770042    -0.089921    15.511092    -86.836929    -6.685893    -24.003653    1.632449    -24.517813    -4.974216    -1.034167    29.130758    -1.934984    6.060206    -12.952324    8.617217    3.579652    -5.275659    3.882603    -0.055978    12.700813    9.035782    -1.304456    -8.479490    -24.935768    
-32.242264    83.729797    -4.585484    4.237164    0.346060    -35.307743    1.949969    -0.328328    -4.390985    4.830798    18.492041    5.426023    -10.766317    -26.043121    3.718395    -15.662031    -0.194286    1.416937    -61.623882    28.456930    -4.171393    4.249229    -0.648271    -17.633263    101.134216    -4.734765    24.241577    18.242598    -1.672555    -10.239165    50.901161    39.408733    10.852807    -0.731352    -0.125092    15.502685    -86.971451    -6.594104    -23.947205    1.674065    -24.579374    -4.939650    -1.098499    29.253759    -1.889239    6.095827    -13.001389    8.577664    3.590518    -5.263806    3.896904    -0.062546    12.688360    9.055788    -1.289942    -8.483647    -24.957304    
